<svg width="54" height="53" viewBox="0 0 54 53" fill="none" xmlns="http://www.w3.org/2000/svg">
<g clip-path="url(#clip0_0_157)">
<path opacity="0.35" fill-rule="evenodd" clip-rule="evenodd" d="M27.0024 -0.000212C41.4708 -0.000212 53.1997 11.7284 53.1997 26.1969C53.1997 40.6655 41.4708 52.3945 27.0024 52.3945C12.5339 52.3945 0.805032 40.6655 0.805032 26.1969C0.805032 11.7284 12.5339 -0.000212 27.0024 -0.000212Z" fill="black"/>
<path fill-rule="evenodd" clip-rule="evenodd" d="M36.6339 21.9592C35.7857 21.9592 35.0927 22.6528 35.0927 23.4999V29.6642C35.0927 30.5117 35.7857 31.2051 36.6339 31.2051C37.4818 31.2051 38.1748 30.5117 38.1748 29.6642V23.4999C38.1748 22.6528 37.4818 21.9592 36.6339 21.9592ZM18.1415 21.9592C17.2935 21.9592 16.6004 22.6528 16.6004 23.4999V29.6642C16.6004 30.5117 17.2935 31.2051 18.1415 31.2051C18.9896 31.2051 19.6826 30.5117 19.6826 29.6642V23.4999C19.6826 22.6528 18.9896 21.9592 18.1415 21.9592ZM20.4531 31.976C20.4531 33.2519 21.4876 34.2875 22.7645 34.2875H23.5351V37.3698C23.5351 38.2167 24.228 38.9105 25.076 38.9105C25.9241 38.9105 26.6171 38.2167 26.6171 37.3698V34.2875H28.1582V37.3698C28.1582 38.2167 28.8511 38.9105 29.6992 38.9105C30.5472 38.9105 31.2401 38.2167 31.2401 37.3698V34.2875H32.0107C33.2876 34.2875 34.3222 33.2519 34.3222 31.976V23.4999H20.4531V31.976ZM30.2432 16.4091L31.2184 14.5355C31.268 14.4418 31.2304 14.3246 31.137 14.2759C31.0424 14.227 30.9256 14.2641 30.8767 14.3584L29.8866 16.2596C29.1114 15.9598 28.2688 15.7951 27.3876 15.7951C26.5064 15.7951 25.6638 15.9598 24.8887 16.2596L23.8985 14.3584C23.8497 14.2641 23.7329 14.227 23.6382 14.2759C23.5448 14.3246 23.5073 14.4418 23.5569 14.5355L24.532 16.4091C22.35 17.3965 20.7697 19.4809 20.4959 21.9592H34.2793C34.0055 19.4809 32.4253 17.3965 30.2432 16.4091ZM24.3056 20.765C23.6886 20.765 23.1881 20.2645 23.1881 19.6479C23.1881 19.0307 23.6886 18.5304 24.3056 18.5304C24.9226 18.5304 25.423 19.0307 25.423 19.6479C25.423 20.2645 24.9226 20.765 24.3056 20.765ZM30.4697 20.765C29.8526 20.765 29.3523 20.2645 29.3523 19.6479C29.3523 19.0307 29.8526 18.5304 30.4697 18.5304C31.0867 18.5304 31.5871 19.0307 31.5871 19.6479C31.5871 20.2645 31.0867 20.765 30.4697 20.765Z" fill="white"/>
</g>
<defs>
<clipPath id="clip0_0_157">
<rect width="54" height="53" fill="white"/>
</clipPath>
</defs>
</svg>
