<svg width="53" height="53" viewBox="0 0 53 53" fill="none" xmlns="http://www.w3.org/2000/svg">
<g clip-path="url(#clip0_0_166)">
<path opacity="0.35" fill-rule="evenodd" clip-rule="evenodd" d="M26.1973 -0.000212C40.6657 -0.000212 52.3948 11.7284 52.3948 26.1969C52.3948 40.6655 40.6657 52.3945 26.1973 52.3945C11.7288 52.3945 0.000106 40.6655 0.000106 26.1969C0.000106 11.7284 11.7288 -0.000212 26.1973 -0.000212Z" fill="#030303"/>
<path fill-rule="evenodd" clip-rule="evenodd" d="M31.7712 25.814C31.7403 22.6914 34.3175 21.1931 34.4334 21.1196C32.9841 18.9996 30.7283 18.7094 29.9247 18.6761C28.0044 18.4813 26.1775 19.8063 25.2038 19.8063C24.2316 19.8063 22.7274 18.7039 21.1353 18.7342C19.0428 18.7644 17.1127 19.9509 16.0345 21.8251C13.8606 25.5981 15.4784 31.188 17.5973 34.2477C18.6334 35.7454 19.8682 37.4283 21.4897 37.3678C23.0503 37.3066 23.6409 36.3584 25.5288 36.3584C27.416 36.3584 27.9472 37.3678 29.5988 37.3369C31.2791 37.3066 32.3438 35.8106 33.3724 34.3077C34.5613 32.5701 35.0504 30.8879 35.0805 30.8013C35.0428 30.7845 31.8036 29.5431 31.7712 25.814ZM28.6666 16.6499C29.5274 15.6064 30.1082 14.1579 29.9494 12.7133C28.7102 12.763 27.2069 13.5377 26.3181 14.5798C25.5198 15.5041 24.8216 16.9794 25.0088 18.3956C26.3926 18.5032 27.805 17.691 28.6666 16.6499Z" fill="#4BCAFF"/>
</g>
<defs>
<clipPath id="clip0_0_166">
<rect width="53" height="53" fill="white"/>
</clipPath>
</defs>
</svg>
