<svg width="47" height="69" viewBox="0 0 47 69" fill="none" xmlns="http://www.w3.org/2000/svg">
<g clip-path="url(#clip0_0_124)">
<path fill-rule="evenodd" clip-rule="evenodd" d="M40.5986 68.9888H6.40126C2.86954 68.9888 -0.010763 66.0876 -0.010763 62.5221V6.4771C-0.010763 2.91152 2.86954 0.010419 6.40126 0.010419H40.5986C44.1385 0.010419 47.0106 2.91152 47.0106 6.4771V62.5221C47.0106 66.0876 44.1385 68.9888 40.5986 68.9888ZM42.736 6.4771C42.736 5.29002 41.7759 4.32161 40.5986 4.32161H6.40126C5.224 4.32161 4.26398 5.29002 4.26398 6.4771V62.5221C4.26398 63.7096 5.224 64.6776 6.40126 64.6776H40.5986C41.7759 64.6776 42.736 63.7096 42.736 62.5221V6.4771ZM8.53858 8.6328H38.4613V56.0554H8.53858V8.6328ZM23.4999 58.2111C24.6772 58.2111 25.6373 59.1791 25.6373 60.3664C25.6373 61.5539 24.6772 62.5221 23.4999 62.5221C22.3227 62.5221 21.3627 61.5539 21.3627 60.3664C21.3627 59.1791 22.3227 58.2111 23.4999 58.2111Z" fill="white"/>
</g>
<defs>
<clipPath id="clip0_0_124">
<rect width="47" height="69" fill="white"/>
</clipPath>
</defs>
</svg>
