<svg width="70" height="70" viewBox="0 0 70 70" fill="none" xmlns="http://www.w3.org/2000/svg">
<g clip-path="url(#clip0_0_114)">
<path fill-rule="evenodd" clip-rule="evenodd" d="M61.2417 56.8679V69.9886L48.1208 56.8679H26.2527C21.879 56.8679 17.5054 52.4938 17.5054 48.1202V45.5573L23.6901 39.3732H43.7472C50.4957 39.3732 56.8681 32.9966 56.8681 26.2523V21.8789H61.2417C65.6153 21.8789 69.989 26.2523 69.989 30.6258V48.1202C69.989 52.4938 65.6153 56.8679 61.2417 56.8679ZM43.7472 34.9994H21.879L8.75812 48.1202V34.9994C4.38445 34.9994 0.01085 30.6258 0.01085 26.2523V8.75791C0.01085 4.3841 4.38445 0.01043 8.75812 0.01043H43.7472C48.1208 0.01043 52.4945 4.3841 52.4945 8.75791V26.2523C52.4945 30.6258 48.1208 34.9994 43.7472 34.9994Z" fill="#F9F9F9"/>
</g>
<defs>
<clipPath id="clip0_0_114">
<rect width="70" height="70" fill="white"/>
</clipPath>
</defs>
</svg>
